<svg xmlns="http://www.w3.org/2000/svg" viewBox="0 0 1402.63 1227"><defs><style>.cls-1{fill:#f6f7fa;}.cls-2{fill:#fff;}</style></defs><title>Recurso 2</title><g id="Capa_2" data-name="Capa 2"><g id="Capa_1-2" data-name="Capa 1"><path class="cls-1" d="M788,0S461.32,67.45,480.56,381.8,396.29,756.42,244.49,826.45C98.13,894-23,990.66,3.73,1227h1398.9V0Z"/><path class="cls-2" d="M872,199H759.86s8.22-33.69,37.22-33.69c21.5,0,32.65,13.6,37,20.64,8.48-3.32,26.73-7.34,37.95,13.05"/><path class="cls-2" d="M962.31,290.54a30.2,30.2,0,0,1,15.17,4.09,48.66,48.66,0,0,1,83.29-2.92c4.69-16.06,19.21-27.77,36.41-27.77,19.52,0,35.58,15.08,37.74,34.49a30.5,30.5,0,0,1,4.81-.42,30.85,30.85,0,0,1,27.4,17H932.2C935.41,301,947.66,290.54,962.31,290.54Z"/></g></g></svg>