<svg xmlns="http://www.w3.org/2000/svg" viewBox="0 0 651.53 119.71"><defs><style>.cls-1{fill:#fff;}</style></defs><title>Recurso 13</title><g id="Capa_2" data-name="Capa 2"><g id="Capa_1-2" data-name="Capa 1"><path class="cls-1" d="M158.86,47.71H0S11.64,0,52.73,0C83.17,0,99,19.25,105.12,29.23c12-4.7,37.86-10.4,53.74,18.48"/><path class="cls-1" d="M361.42,85.07a42.78,42.78,0,0,1,21.49,5.79c12.14-21.17,34.54-35.42,60.23-35.42a69.34,69.34,0,0,1,57.74,31.28c6.64-22.74,27.2-39.33,51.56-39.33,27.65,0,50.4,21.36,53.46,48.85a42.47,42.47,0,0,1,6.81-.59,43.71,43.71,0,0,1,38.82,24.06H318.77C323.32,99.87,340.67,85.07,361.42,85.07Z"/></g></g></svg>