<svg xmlns="http://www.w3.org/2000/svg" viewBox="0 0 450.23 805.17"><defs><style>.cls-1{fill:#fff;}</style></defs><title>Recurso 6</title><g id="Capa_2" data-name="Capa 2"><g id="Capa_1-2" data-name="Capa 1"><path class="cls-1" d="M450.23,805.17H0V0H450.23ZM8.17,799.35H442.05V5.82H8.17Z"/><rect class="cls-1" x="102.63" y="69.56" width="244.96" height="23.78"/><rect class="cls-1" x="107.22" y="149.21" width="235.8" height="15.14"/><rect class="cls-1" x="107.22" y="184.61" width="235.8" height="15.14"/><rect class="cls-1" x="107.22" y="220" width="235.8" height="15.14"/><rect class="cls-1" x="107.22" y="255.4" width="235.8" height="15.14"/><rect class="cls-1" x="107.22" y="290.8" width="235.8" height="15.14"/><rect class="cls-1" x="107.22" y="326.19" width="235.8" height="15.14"/><rect class="cls-1" x="107.22" y="361.59" width="235.8" height="15.14"/><rect class="cls-1" x="107.22" y="398.98" width="235.8" height="15.14"/><rect class="cls-1" x="107.22" y="434.38" width="235.8" height="15.14"/><rect class="cls-1" x="107.22" y="469.78" width="235.8" height="15.14"/><rect class="cls-1" x="107.22" y="505.18" width="235.8" height="15.14"/><rect class="cls-1" x="107.22" y="540.57" width="235.8" height="15.14"/><rect class="cls-1" x="107.22" y="575.97" width="235.8" height="15.14"/><rect class="cls-1" x="107.22" y="611.37" width="235.8" height="15.14"/><rect class="cls-1" x="102.8" y="681.12" width="244.76" height="55.62" rx="1.62"/></g></g></svg>